<svg width="37" height="35" viewBox="0 0 37 35" fill="none" xmlns="http://www.w3.org/2000/svg">
<path fill-rule="evenodd" clip-rule="evenodd" d="M18.3333 0.666138V8.08921H36.6667V34.0699H0V0.666138H18.3333ZM3.66669 30.3584H7.33331V26.6469H3.66669V30.3584ZM7.33331 22.9353H3.66669V19.2238H7.33331V22.9353ZM3.66669 15.5122H7.33331V11.8007H3.66669V15.5122ZM7.33331 8.08923H3.66669V4.37756H7.33331V8.08923ZM11 30.3584H14.6667V26.6469H11V30.3584ZM14.6667 22.9353H11V19.2238H14.6667V22.9353ZM11 15.5122H14.6667V11.8007H11V15.5122ZM14.6667 8.08923H11V4.37756H14.6667V8.08923ZM18.3333 30.3584H33V11.8007H18.3333V15.5122H22V19.2238H18.3333V22.9353H22V26.6469H18.3333V30.3584ZM29.3333 15.5122H25.6667V19.2238H29.3333V15.5122ZM25.6667 22.9353H29.3333V26.6469H25.6667V22.9353Z" fill="#32327F"/>
</svg>
