<svg width="34" height="40" viewBox="0 0 34 40" fill="none" xmlns="http://www.w3.org/2000/svg">
<path fill-rule="evenodd" clip-rule="evenodd" d="M10.4216 23.1255C10.6978 23.1255 10.9556 23.1069 11.2134 23.0696C12.0788 25.213 14.1594 26.7227 16.5715 26.7227C18.9835 26.7227 21.0642 25.213 21.9296 23.0696C22.1874 23.1069 22.4636 23.1255 22.7213 23.1255C25.9067 23.1255 28.5029 20.4976 28.5029 17.2732C28.5029 15.9499 28.0426 14.6825 27.2693 13.676C28.061 12.6696 28.5029 11.4022 28.5029 10.0789C28.5029 6.8545 25.9067 4.22654 22.7213 4.22654C22.4451 4.22654 22.1874 4.24518 21.9296 4.28245C21.0642 2.13908 18.9835 0.629395 16.5715 0.629395C14.1594 0.629395 12.0788 2.13908 11.2134 4.28245C10.9556 4.24518 10.6794 4.22654 10.4216 4.22654C7.23624 4.22654 4.64005 6.8545 4.64005 10.0789C4.64005 11.4022 5.10036 12.6696 5.8737 13.676C5.08195 14.6825 4.62163 15.9499 4.62163 17.2732C4.62163 20.4976 7.21783 23.1255 10.4216 23.1255ZM16.5714 22.995C15.4299 22.995 14.5092 22.0817 14.4724 20.9448L14.6933 18.9133C15.2826 19.137 15.9086 19.2674 16.5714 19.2674C17.2343 19.2674 17.8788 19.137 18.468 18.9133L18.6705 20.9448C18.6337 22.0817 17.713 22.995 16.5714 22.995ZM21.5429 19.025C21.8744 19.2672 22.2794 19.3977 22.7213 19.3977C23.8813 19.3977 24.8388 18.4472 24.8388 17.2544C24.8388 16.4344 24.3601 15.6889 23.6236 15.3348L22.0032 14.552C21.7823 15.9312 21.0642 17.124 20.0515 17.9626L21.5429 19.025ZM21.5244 8.32685C21.8927 8.08457 22.2978 7.9541 22.7212 7.9541C23.8812 7.9541 24.8203 8.90462 24.8203 10.0788C24.8203 10.8988 24.36 11.6257 23.6051 11.9985L21.9847 12.7812C21.7638 11.4021 21.0457 10.2093 20.0146 9.37056L21.5244 8.32685ZM18.6705 6.40715C18.6337 5.27021 17.713 4.35693 16.5714 4.35693C15.4299 4.35693 14.5092 5.27021 14.4724 6.40715L14.6933 8.43872C15.2826 8.21506 15.9086 8.08459 16.5714 8.08459C17.2343 8.08459 17.8788 8.21506 18.468 8.43872L18.6705 6.40715ZM10.4216 7.9541C10.8635 7.9541 11.2686 8.08457 11.6 8.32685L13.0915 9.37056C12.0788 10.2093 11.3607 11.4021 11.1397 12.7812L9.51941 11.9985C8.7829 11.6257 8.30417 10.8988 8.30417 10.0788C8.30417 8.90462 9.26163 7.9541 10.4216 7.9541ZM11.1398 14.5707L9.51948 15.3535C8.78297 15.7262 8.30424 16.4531 8.32266 17.2545C8.32266 18.4287 9.2617 19.3793 10.4217 19.3793C10.8452 19.3793 11.2503 19.2488 11.6185 19.0065L13.11 17.9814C12.0788 17.1427 11.3607 15.9499 11.1398 14.5707ZM16.5714 39.7693C25.7225 39.7693 33.1429 32.2581 33.1429 22.995C23.997 22.995 16.5799 30.4976 16.5714 39.7534C16.563 30.4976 9.14588 22.995 0 22.995C0 32.2581 7.42032 39.7693 16.5714 39.7693ZM21.064 35.2216C22.3713 31.6803 25.1517 28.8473 28.6501 27.5426C27.3428 31.0839 24.5625 33.8982 21.064 35.2216ZM4.49258 27.5426C7.991 28.8659 10.7897 31.6803 12.0786 35.2216C8.5802 33.8982 5.79989 31.0839 4.49258 27.5426Z" fill="#32327F"/>
</svg>
