<svg width="232" height="55" viewBox="0 0 232 55" fill="none" xmlns="http://www.w3.org/2000/svg">
<g clip-path="url(#clip0)">
<path d="M228.514 55H140.159C139.239 55 138.367 54.6134 137.689 53.9851L113.628 29.9648C112.272 28.6116 112.272 26.3884 113.628 25.0351L137.689 1.01494C138.367 0.338313 139.239 0 140.159 0H228.514C230.451 0 232 1.54657 232 3.47979V51.5202C232 53.4534 230.402 55 228.514 55ZM141.611 48.0404H225.028V6.95958H141.611L121.035 27.5L141.611 48.0404Z" fill="#DADADA"/>
<path d="M92.0351 55H3.48581C1.54925 55 0 53.4534 0 51.5202V3.47979C0 1.54657 1.54925 0 3.48581 0H92.0351C92.9549 0 93.8264 0.386643 94.5042 1.01494L118.566 25.0351C119.922 26.3884 119.922 28.6116 118.566 29.9648L94.5042 54.0334C93.8748 54.6617 92.9549 55 92.0351 55ZM6.97162 48.0404H90.5826L111.159 27.5L90.5826 6.95958H6.97162V48.0404Z" fill="white"/>
<path d="M116.093 22.572L111.166 27.4952L116.097 32.4143L121.025 27.4911L116.093 22.572Z" fill="#C4C4C4"/>
<path d="M69.6678 14.4025V22.6186H76.2521V40.6942H84.4825V22.6186H91.0668V14.4025H69.6678Z" fill="white"/>
<path d="M46.6711 14.4025V22.6186H53.207V40.6942H61.4374V22.6186H68.0217V14.4025H46.6711Z" fill="white"/>
<path d="M14.379 40.6459H22.6094V26.0501L29.6778 33.1547L36.7947 26.0501V40.6459H45.025V14.4025H36.7947V14.4508L29.6778 21.507L22.6094 14.4508V14.4025H14.379V40.6459Z" fill="white"/>
<path d="M159.718 14.4025H161.267L163.058 17.7373L164.85 14.4025H166.447V20.5404H165.043V16.4807L163.397 19.5738H162.671L161.073 16.5773V20.5404H159.718V14.4025Z" fill="#DADADA"/>
<path d="M167.464 17.4956C167.464 15.6107 168.82 14.3058 170.708 14.3058C172.596 14.3058 173.952 15.6107 173.952 17.4956C173.952 19.3805 172.596 20.6854 170.708 20.6854C168.82 20.6854 167.464 19.3805 167.464 17.4956ZM172.548 17.4956C172.548 16.3357 171.821 15.5624 170.756 15.5624C169.691 15.5624 168.965 16.3357 168.965 17.4956C168.965 18.6555 169.691 19.4288 170.756 19.4288C171.821 19.4288 172.548 18.6555 172.548 17.4956Z" fill="#DADADA"/>
<path d="M174.048 14.4025H175.549L177.002 18.5106L178.406 14.4025H179.81L177.583 20.5404H176.275L174.048 14.4025Z" fill="#DADADA"/>
<path d="M180.487 14.4025H181.891V20.5404H180.487V14.4025Z" fill="#DADADA"/>
<path d="M183.295 14.4025H184.699L187.362 18.3172V14.4025H188.718V20.5404H187.362L184.603 16.529V20.5404H183.247V14.4025H183.295Z" fill="#DADADA"/>
<path d="M189.735 17.4956C189.735 15.6107 191.042 14.3058 193.124 14.3058C193.801 14.3058 194.479 14.4508 194.915 14.7408V16.094C194.431 15.804 193.85 15.6107 193.172 15.6107C191.913 15.6107 191.139 16.3357 191.139 17.4956C191.139 18.7039 191.865 19.4288 193.075 19.4288C193.414 19.4288 193.704 19.3805 193.995 19.2838V18.1722H192.785V16.9156H195.351V19.9121C194.866 20.3954 193.995 20.6371 193.075 20.6371C191.042 20.6854 189.735 19.4288 189.735 17.4956Z" fill="#DADADA"/>
<path d="M143.935 28.1283L141.756 24.5519H143.402L144.709 26.7267L146.017 24.5519H147.566L145.387 28.1283V30.7382H143.983V28.1283H143.935Z" fill="#DADADA"/>
<path d="M147.324 27.645C147.324 25.7601 148.679 24.4552 150.568 24.4552C152.456 24.4552 153.811 25.7601 153.811 27.645C153.811 29.5299 152.456 30.8348 150.568 30.8348C148.631 30.8348 147.324 29.4816 147.324 27.645ZM152.359 27.645C152.359 26.4851 151.633 25.7118 150.568 25.7118C149.502 25.7118 148.776 26.4851 148.776 27.645C148.776 28.8049 149.502 29.5782 150.568 29.5782C151.633 29.5299 152.359 28.8049 152.359 27.645Z" fill="#DADADA"/>
<path d="M154.683 28.37V24.5519H156.087V28.2733C156.087 29.1433 156.474 29.5299 157.297 29.5299C158.12 29.5299 158.459 29.1433 158.459 28.2733V24.5519H159.815V28.37C159.815 30.0132 158.992 30.8348 157.297 30.8348C155.506 30.8348 154.683 30.0615 154.683 28.37Z" fill="#DADADA"/>
<path d="M161.073 24.5519H163.688C165.189 24.5519 166.012 25.2285 166.012 26.5334C166.012 27.4517 165.576 28.08 164.801 28.3216L166.447 30.6898H164.753L163.3 28.4666H162.477V30.6898H161.073V24.5519ZM163.639 27.3067C164.317 27.3067 164.608 27.1134 164.608 26.5818C164.608 26.0501 164.317 25.8568 163.639 25.8568H162.477V27.355H163.639V27.3067Z" fill="#DADADA"/>
<path d="M169.207 24.5519H171.967C173.322 24.5519 174 25.0835 174 26.1468C174 26.7751 173.758 27.1617 173.274 27.4034C173.952 27.645 174.29 28.1283 174.29 28.9499C174.29 30.1099 173.564 30.6898 172.257 30.6898H169.159V24.5519H169.207ZM171.87 27.0167C172.402 27.0167 172.596 26.8234 172.596 26.3884C172.596 25.9535 172.354 25.7601 171.87 25.7601H170.611V27.0167H171.87ZM172.063 29.4816C172.596 29.4816 172.838 29.2883 172.838 28.8533C172.838 28.4183 172.596 28.225 171.967 28.225H170.563V29.4816H172.063Z" fill="#DADADA"/>
<path d="M175.259 28.37V24.5519H176.663V28.2733C176.663 29.1433 177.05 29.5299 177.873 29.5299C178.696 29.5299 179.035 29.1433 179.035 28.2733V24.5519H180.391V28.37C180.391 30.0132 179.568 30.8348 177.873 30.8348C176.082 30.8348 175.259 30.0615 175.259 28.37Z" fill="#DADADA"/>
<path d="M181.407 30.3032V28.9016C181.988 29.3366 182.763 29.5782 183.538 29.5782C184.264 29.5782 184.603 29.3849 184.603 28.9499C184.603 28.6116 184.409 28.4183 183.731 28.2733L182.957 28.08C181.843 27.8383 181.31 27.2584 181.31 26.3401C181.31 25.0835 182.23 24.4069 183.731 24.4069C184.506 24.4069 185.184 24.5519 185.619 24.8418V26.1951C185.087 25.8084 184.409 25.6151 183.731 25.6151C183.053 25.6151 182.714 25.8084 182.714 26.2434C182.714 26.5817 182.908 26.7267 183.634 26.8717L184.457 27.065C185.571 27.3067 186.055 27.8383 186.055 28.8533C186.055 30.2065 185.184 30.8348 183.586 30.8348C182.666 30.8348 181.891 30.6415 181.407 30.3032Z" fill="#DADADA"/>
<path d="M187.12 24.5519H188.524V30.6898H187.12V24.5519Z" fill="#DADADA"/>
<path d="M189.88 24.5519H191.284L193.947 28.4666V24.5519H195.302V30.6898H193.995L191.235 26.6784V30.6898H189.88V24.5519Z" fill="#DADADA"/>
<path d="M196.706 24.5519H201.402V25.8085H198.11V26.9684H200.967V28.1767H198.11V29.4816H201.499V30.7382H196.706V24.5519Z" fill="#DADADA"/>
<path d="M202.371 30.3032V28.9016C202.952 29.3366 203.726 29.5782 204.501 29.5782C205.227 29.5782 205.566 29.3849 205.566 28.9499C205.566 28.6116 205.372 28.4183 204.694 28.2733L203.92 28.08C202.806 27.8383 202.274 27.2584 202.274 26.3401C202.274 25.0835 203.194 24.4069 204.694 24.4069C205.469 24.4069 206.147 24.5519 206.583 24.8418V26.1951C206.05 25.8084 205.372 25.6151 204.694 25.6151C204.017 25.6151 203.678 25.8084 203.678 26.2434C203.678 26.5817 203.871 26.7267 204.598 26.8717L205.372 27.065C206.486 27.3067 206.97 27.8383 206.97 28.8533C206.97 30.2065 206.098 30.8348 204.501 30.8348C203.629 30.8348 202.855 30.6415 202.371 30.3032Z" fill="#DADADA"/>
<path d="M207.793 30.3032V28.9016C208.374 29.3366 209.149 29.5782 209.923 29.5782C210.649 29.5782 210.988 29.3849 210.988 28.9499C210.988 28.6116 210.795 28.4183 210.117 28.2733L209.342 28.08C208.229 27.8383 207.696 27.2584 207.696 26.3401C207.696 25.0835 208.616 24.4069 210.117 24.4069C210.891 24.4069 211.569 24.5519 212.005 24.8418V26.1951C211.472 25.8084 210.795 25.6151 210.117 25.6151C209.439 25.6151 209.1 25.8084 209.1 26.2434C209.1 26.5817 209.294 26.7267 210.02 26.8717L210.795 27.065C211.908 27.3067 212.392 27.8383 212.392 28.8533C212.392 30.2065 211.521 30.8348 209.923 30.8348C209.052 30.8348 208.277 30.6415 207.793 30.3032Z" fill="#DADADA"/>
<path d="M156.329 34.7013H160.88V35.9579H157.733V37.2145H160.444V38.4711H157.733V40.8876H156.329V34.7013Z" fill="#DADADA"/>
<path d="M161.315 37.7944C161.315 35.9095 162.671 34.6046 164.559 34.6046C166.447 34.6046 167.803 35.9095 167.803 37.7944C167.803 39.6793 166.447 40.9842 164.559 40.9842C162.623 40.9842 161.315 39.631 161.315 37.7944ZM166.351 37.7944C166.351 36.6345 165.624 35.8612 164.559 35.8612C163.494 35.8612 162.768 36.6345 162.768 37.7944C162.768 38.9543 163.494 39.7276 164.559 39.7276C165.624 39.6793 166.351 38.906 166.351 37.7944Z" fill="#DADADA"/>
<path d="M168.82 34.7013H171.434C172.935 34.7013 173.758 35.3779 173.758 36.6828C173.758 37.6011 173.322 38.2294 172.548 38.4711L174.194 40.8393H172.499L171.047 38.6161H170.224V40.8393H168.82V34.7013ZM171.386 37.4078C172.063 37.4078 172.354 37.2145 172.354 36.6828C172.354 36.1512 172.063 35.9579 171.386 35.9579H170.224V37.4561H171.386V37.4078Z" fill="#DADADA"/>
<path d="M174.194 34.7013H175.646L176.711 38.6644L177.825 34.7013H178.987L180.149 38.6644L181.214 34.7013H182.618L180.826 40.8393H179.568L178.454 36.8762L177.292 40.8393H176.033L174.194 34.7013Z" fill="#DADADA"/>
<path d="M184.651 34.7013H186.055L188.427 40.8393H186.927L186.491 39.631H184.167L183.731 40.8393H182.327L184.651 34.7013ZM186.055 38.4711L185.329 36.3445L184.603 38.4711H186.055Z" fill="#DADADA"/>
<path d="M189.105 34.7013H191.72C193.22 34.7013 194.043 35.3779 194.043 36.6828C194.043 37.6011 193.608 38.2294 192.833 38.4711L194.479 40.8393H192.785L191.332 38.6161H190.509V40.8393H189.105V34.7013ZM191.671 37.4078C192.349 37.4078 192.639 37.2145 192.639 36.6828C192.639 36.1512 192.349 35.9579 191.671 35.9579H190.509V37.4561H191.671V37.4078Z" fill="#DADADA"/>
<path d="M195.254 34.7013H197.384C199.514 34.7013 200.725 35.8129 200.725 37.7944C200.725 39.776 199.563 40.8876 197.384 40.8876H195.254V34.7013ZM197.336 39.631C198.643 39.631 199.272 39.0027 199.272 37.7944C199.272 36.5862 198.643 35.9579 197.336 35.9579H196.658V39.631H197.336Z" fill="#DADADA"/>
</g>
<defs>
<clipPath id="clip0">
<rect width="232" height="55" fill="white"/>
</clipPath>
</defs>
</svg>
