    <svg width="131" height="59" fill="none" xmlns="http://www.w3.org/2000/svg">
        <g clip-path="url(#clip0)">
            <path
                d="M127.742 44.4649H113.688C112.942 44.4649 112.235 44.1523 111.686 43.6444L92.175 24.2252C91.0758 23.1311 91.0758 21.3338 92.175 20.2397L111.686 0.82053C112.235 0.27351 112.942 0 113.688 0H127.742C129.312 0 130.568 1.25033 130.568 2.81324V41.6517C130.568 43.2146 129.312 44.4649 127.742 44.4649ZM114.865 38.8384H124.915V5.62649H114.865L98.1813 22.2325L114.865 38.8384Z"
                fill="#009B80" />
            <path
                d="M74.6668 44.4649H2.8661C1.29583 44.4649 0.0396118 43.2146 0.0396118 41.6517V2.81324C0.0396118 1.25033 1.29583 0 2.8661 0H74.6668C75.4127 0 76.1193 0.312583 76.6689 0.82053L96.1796 20.2397C97.2787 21.3338 97.2787 23.1311 96.1796 24.2252L76.6689 43.6834C76.1586 44.1914 75.4127 44.4649 74.6668 44.4649ZM5.69259 38.8384H73.4891L90.1733 22.2325L73.4891 5.62649H5.69259V38.8384Z"
                fill="#32327F" />
            <path d="M94.1761 18.2529L90.1805 22.2331L94.1795 26.2099L98.175 22.2297L94.1761 18.2529Z" fill="#95D946" />
            <path d="M56.5691 11.6437V18.2861H61.8687V32.8993H68.5424V18.2861H73.8813V11.6437H56.5691Z" fill="#32327F" />
            <path d="M37.8828 11.6437V18.2861H43.2217V32.8993H49.8954V18.2861H55.2343V11.6437H37.8828Z" fill="#32327F" />
            <path
                d="M11.6985 32.8603H18.3722V21.0603L24.143 26.804L29.8744 21.0603V32.8603H36.5481V11.6437H29.8744V11.6828L24.143 17.3874L18.3722 11.6828V11.6437H11.6985V32.8603Z"
                fill="#32327F" />
            <path
                d="M0.118419 58.3748V56.4212C0.864299 56.9291 1.84572 57.2417 2.78788 57.2417C3.53376 57.2417 3.92633 57.0464 3.92633 56.5775C3.92633 56.2649 3.7693 56.0695 3.02342 55.9132L2.15977 55.7179C0.707272 55.4053 0.0791626 54.7411 0.0791626 53.4907C0.0791626 51.8497 1.21761 50.951 3.21971 50.951C4.16187 50.951 5.02552 51.1464 5.65363 51.4589V53.3735C4.94701 52.9046 4.12261 52.6702 3.29822 52.6702C2.55234 52.6702 2.19903 52.8656 2.19903 53.2954C2.19903 53.6079 2.43457 53.7642 3.18045 53.9596L4.0441 54.155C5.45735 54.4676 6.0462 55.1318 6.0462 56.4212C6.0462 58.1404 4.94701 58.9609 2.8664 58.9609C1.68869 59 0.746528 58.7656 0.118419 58.3748Z"
                fill="#32327F" />
            <path
                d="M7.57654 51.1073H9.65715V53.9987H12.2874V51.1073H14.368V58.8437H12.2874V55.8742H9.65715V58.8437H7.57654V51.1073Z"
                fill="#32327F" />
            <path d="M16.3701 51.1073H18.4507V58.8437H16.3701V51.1073Z" fill="#32327F" />
            <path
                d="M20.4135 51.1073H23.5933C25.6347 51.1073 26.6553 52.006 26.6553 53.7252C26.6553 55.4444 25.5954 56.3821 23.5933 56.3821H22.4941V58.8437H20.4135V51.1073ZM23.4755 54.6239C24.2214 54.6239 24.5355 54.3503 24.5355 53.7643C24.5355 53.1391 24.2214 52.9046 23.4755 52.9046H22.4941V54.6629H23.4755V54.6239Z"
                fill="#32327F" />
            <path
                d="M28.0294 51.1073H31.2092C33.2505 51.1073 34.2712 52.006 34.2712 53.7252C34.2712 55.4444 33.2113 56.3821 31.2092 56.3821H30.11V58.8437H28.0294V51.1073ZM31.0914 54.6239C31.8373 54.6239 32.1513 54.3503 32.1513 53.7643C32.1513 53.1391 31.8373 52.9046 31.0914 52.9046H30.11V54.6629H31.0914V54.6239Z"
                fill="#32327F" />
            <path d="M35.6451 51.1073H37.7258V58.8437H35.6451V51.1073Z" fill="#32327F" />
            <path
                d="M39.6887 51.1073H41.73L44.5958 55.5225V51.1073H46.5979V58.8437H44.635L41.6908 54.3113V58.8437H39.6887V51.1073Z"
                fill="#32327F" />
            <path
                d="M48.1681 55.0146C48.1681 52.6311 49.8561 50.9901 52.4471 50.9901C53.3107 50.9901 54.1351 51.1854 54.6847 51.498V53.4907C54.0959 53.1 53.3107 52.9046 52.5649 52.9046C51.1124 52.9046 50.288 53.6861 50.288 55.0146C50.288 56.3821 51.1124 57.1245 52.4078 57.1245C52.6826 57.1245 52.9574 57.0854 53.2322 57.0073V55.8742H52.0153V54.2331H55.2736V58.1404C54.6847 58.7265 53.5855 59.0391 52.4078 59.0391C49.8561 59 48.1681 57.398 48.1681 55.0146Z"
                fill="#32327F" />
            <path
                d="M59.2778 56.7337C59.2778 55.8741 59.6704 55.2881 60.534 54.741C60.0629 54.194 59.7881 53.6861 59.7881 53.0218C59.7881 51.7715 60.6518 50.9901 62.2221 50.9901C63.6746 50.9901 64.5775 51.6934 64.5775 52.9046C64.5775 53.7251 64.1849 54.2722 63.2427 54.741L63.125 54.8192L64.4597 56.1086C64.6167 55.7179 64.6952 55.249 64.6952 54.741H66.6973C66.6973 55.9523 66.5011 56.7337 65.7552 57.398L67.3254 58.9218H64.656L64.3027 58.5702C63.7923 58.8827 63.0465 59.0781 62.1828 59.0781C60.3377 59 59.2778 58.1794 59.2778 56.7337ZM63.125 57.3198L61.594 55.796C61.4369 55.9914 61.3977 56.1867 61.3977 56.4602C61.3977 57.0854 61.7902 57.4371 62.5361 57.4371C62.6931 57.398 62.9287 57.3589 63.125 57.3198ZM62.6931 53.0218C62.6931 52.6311 62.4969 52.4357 62.1435 52.4357C61.8295 52.4357 61.594 52.6311 61.594 52.9828C61.594 53.2172 61.7117 53.4126 61.9865 53.7251L62.1043 53.8424C62.5361 53.6079 62.6931 53.3735 62.6931 53.0218Z"
                fill="#32327F" />
            <path d="M71.2119 51.1073H73.2925V56.9682H76.7471V58.8437H71.1726V51.1073H71.2119Z" fill="#32327F" />
            <path
                d="M77.5322 54.9755C77.5322 52.6311 79.2202 50.951 81.6542 50.951C84.0881 50.951 85.7761 52.6311 85.7761 54.9755C85.7761 57.3199 84.0488 59 81.6542 59C79.2202 59 77.5322 57.3199 77.5322 54.9755ZM83.5778 54.9755C83.5778 53.7252 82.7926 52.9046 81.6149 52.9046C80.4372 52.9046 79.6521 53.7252 79.6521 54.9755C79.6521 56.2258 80.4372 57.0464 81.6149 57.0464C82.8319 57.0854 83.5778 56.2649 83.5778 54.9755Z"
                fill="#32327F" />
            <path
                d="M86.8361 55.0146C86.8361 52.6311 88.5241 50.9901 91.1151 50.9901C91.9787 50.9901 92.8031 51.1854 93.3527 51.498V53.4907C92.7638 53.1 91.9787 52.9046 91.2328 52.9046C89.7803 52.9046 88.9559 53.6861 88.9559 55.0146C88.9559 56.3821 89.7803 57.1245 91.0758 57.1245C91.3506 57.1245 91.6254 57.0854 91.9002 57.0073V55.8742H90.6832V54.2331H93.9415V58.1404C93.3527 58.7265 92.2535 59.0391 91.0758 59.0391C88.5241 59 86.8361 57.398 86.8361 55.0146Z"
                fill="#32327F" />
            <path d="M95.7473 51.1073H97.828V58.8437H95.7473V51.1073Z" fill="#32327F" />
            <path
                d="M99.5553 58.3748V56.4212C100.301 56.9291 101.283 57.2417 102.225 57.2417C102.971 57.2417 103.363 57.0464 103.363 56.5775C103.363 56.2649 103.206 56.0695 102.46 55.9132L101.597 55.7179C100.144 55.4053 99.516 54.7411 99.516 53.4907C99.516 51.8497 100.654 50.951 102.657 50.951C103.599 50.951 104.462 51.1464 105.09 51.4589V53.3735C104.384 52.9046 103.559 52.6702 102.735 52.6702C101.989 52.6702 101.636 52.8656 101.636 53.2954C101.636 53.6079 101.871 53.7642 102.617 53.9596L103.481 54.155C104.894 54.4676 105.483 55.1318 105.483 56.4212C105.483 58.1404 104.384 58.9609 102.303 58.9609C101.165 59 100.183 58.7656 99.5553 58.3748Z"
                fill="#32327F" />
            <path d="M108.388 52.9828H106.15V51.1073H112.667V52.9828H110.429V58.8437H108.349V52.9828H108.388Z"
                fill="#32327F" />
            <path d="M113.845 51.1073H115.925V58.8437H113.845V51.1073Z" fill="#32327F" />
            <path
                d="M117.456 54.9755C117.456 52.592 119.144 50.951 121.618 50.951C122.442 50.951 123.227 51.1464 123.659 51.4199V53.4517C123.109 53.0609 122.442 52.9046 121.814 52.9046C120.44 52.9046 119.615 53.6861 119.615 54.9364C119.615 56.2258 120.44 56.9682 121.814 56.9682C122.481 56.9682 123.109 56.7728 123.659 56.4212V58.453C123.227 58.7656 122.403 58.9218 121.618 58.9218C119.184 59 117.456 57.3589 117.456 54.9755Z"
                fill="#32327F" />
            <path
                d="M125.111 58.3748V56.4212C125.857 56.9291 126.839 57.2417 127.781 57.2417C128.527 57.2417 128.919 57.0464 128.919 56.5775C128.919 56.2649 128.762 56.0695 128.016 55.9132L127.153 55.7179C125.7 55.4053 125.072 54.7411 125.072 53.4907C125.072 51.8497 126.211 50.951 128.213 50.951C129.155 50.951 130.019 51.1464 130.647 51.4589V53.3735C129.94 52.9046 129.116 52.6702 128.291 52.6702C127.545 52.6702 127.192 52.8656 127.192 53.2954C127.192 53.6079 127.428 53.7642 128.173 53.9596L129.037 54.155C130.45 54.4676 131.039 55.1318 131.039 56.4212C131.039 58.1404 129.94 58.9609 127.859 58.9609C126.721 59 125.74 58.7656 125.111 58.3748Z"
                fill="#32327F" />
        </g>
        <defs>
            <clipPath id="clip0">
                <rect width="131" height="59" fill="white" />
            </clipPath>
        </defs>
    </svg>
