<svg width="36" height="26" viewBox="0 0 36 26" fill="none" xmlns="http://www.w3.org/2000/svg">
<path fill-rule="evenodd" clip-rule="evenodd" d="M22.8958 12.9167C26.4641 12.9167 29.3542 10.0266 29.3542 6.45835C29.3542 2.89011 26.4641 0 22.8958 0C19.3276 0 16.4375 2.89011 16.4375 6.45835C16.4375 10.0266 19.3276 12.9167 22.8958 12.9167ZM22.8959 3.22915C24.6719 3.22915 26.125 4.68228 26.125 6.45833C26.125 8.23438 24.6719 9.6875 22.8959 9.6875C21.1198 9.6875 19.6667 8.23438 19.6667 6.45833C19.6667 4.68228 21.1198 3.22915 22.8959 3.22915ZM9.97916 22.6043C9.97916 18.3095 18.5849 16.1459 22.8959 16.1459C27.2068 16.1459 35.8126 18.3095 35.8126 22.6043V25.8334H9.97916V22.6043ZM13.2084 22.6042C13.5636 21.4417 18.5527 19.3751 22.8959 19.3751C27.2553 19.3751 32.2605 21.4579 32.5834 22.6042H13.2084ZM8.36457 12.9167V17.7605H5.13539V12.9167H0.291626V9.68753H5.13539V4.84377H8.36457V9.68753H13.2083V12.9167H8.36457Z" fill="#32327F"/>
</svg>
